<mxfile host="app.diagrams.net" modified="2024-07-10T03:10:09.699Z" agent="Mozilla/5.0 (Windows NT 10.0; Win64; x64) AppleWebKit/537.36 (KHTML, like Gecko) Chrome/123.0.0.0 Safari/537.36" etag="TKkPNojZfXQvny4JoHVt" version="24.6.4" type="github">
  <diagram id="C5RBs43oDa-KdzZeNtuy" name="Page-1">
    <mxGraphModel dx="1100" dy="585" grid="1" gridSize="10" guides="1" tooltips="1" connect="1" arrows="1" fold="1" page="1" pageScale="1" pageWidth="827" pageHeight="1169" math="0" shadow="0">
      <root>
        <mxCell id="WIyWlLk6GJQsqaUBKTNV-0" />
        <mxCell id="WIyWlLk6GJQsqaUBKTNV-1" parent="WIyWlLk6GJQsqaUBKTNV-0" />
        <mxCell id="dHORNTZS-OYa20uzowHz-3" value="" style="edgeStyle=orthogonalEdgeStyle;rounded=0;orthogonalLoop=1;jettySize=auto;html=1;" edge="1" parent="WIyWlLk6GJQsqaUBKTNV-1" source="dHORNTZS-OYa20uzowHz-1" target="dHORNTZS-OYa20uzowHz-2">
          <mxGeometry relative="1" as="geometry" />
        </mxCell>
        <mxCell id="dHORNTZS-OYa20uzowHz-1" value="Start" style="strokeWidth=2;html=1;shape=mxgraph.flowchart.start_1;whiteSpace=wrap;" vertex="1" parent="WIyWlLk6GJQsqaUBKTNV-1">
          <mxGeometry x="330" y="50" width="100" height="60" as="geometry" />
        </mxCell>
        <mxCell id="dHORNTZS-OYa20uzowHz-46" style="edgeStyle=orthogonalEdgeStyle;rounded=0;orthogonalLoop=1;jettySize=auto;html=1;entryX=0.5;entryY=0;entryDx=0;entryDy=0;" edge="1" parent="WIyWlLk6GJQsqaUBKTNV-1" source="dHORNTZS-OYa20uzowHz-2" target="dHORNTZS-OYa20uzowHz-7">
          <mxGeometry relative="1" as="geometry" />
        </mxCell>
        <mxCell id="dHORNTZS-OYa20uzowHz-2" value="Turn on Shower" style="rounded=1;whiteSpace=wrap;html=1;absoluteArcSize=1;arcSize=14;strokeWidth=2;" vertex="1" parent="WIyWlLk6GJQsqaUBKTNV-1">
          <mxGeometry x="330" y="140" width="100" height="40" as="geometry" />
        </mxCell>
        <mxCell id="dHORNTZS-OYa20uzowHz-10" value="" style="edgeStyle=orthogonalEdgeStyle;rounded=0;orthogonalLoop=1;jettySize=auto;html=1;" edge="1" parent="WIyWlLk6GJQsqaUBKTNV-1" source="dHORNTZS-OYa20uzowHz-7" target="dHORNTZS-OYa20uzowHz-9">
          <mxGeometry relative="1" as="geometry" />
        </mxCell>
        <mxCell id="dHORNTZS-OYa20uzowHz-7" value="Wet Body" style="rounded=1;whiteSpace=wrap;html=1;arcSize=14;strokeWidth=2;" vertex="1" parent="WIyWlLk6GJQsqaUBKTNV-1">
          <mxGeometry x="320" y="200" width="120" height="60" as="geometry" />
        </mxCell>
        <mxCell id="dHORNTZS-OYa20uzowHz-14" value="" style="edgeStyle=orthogonalEdgeStyle;rounded=0;orthogonalLoop=1;jettySize=auto;html=1;" edge="1" parent="WIyWlLk6GJQsqaUBKTNV-1" source="dHORNTZS-OYa20uzowHz-9" target="dHORNTZS-OYa20uzowHz-13">
          <mxGeometry relative="1" as="geometry" />
        </mxCell>
        <mxCell id="dHORNTZS-OYa20uzowHz-9" value="Apply Shampoo" style="whiteSpace=wrap;html=1;rounded=1;arcSize=14;strokeWidth=2;" vertex="1" parent="WIyWlLk6GJQsqaUBKTNV-1">
          <mxGeometry x="320" y="280" width="120" height="60" as="geometry" />
        </mxCell>
        <mxCell id="dHORNTZS-OYa20uzowHz-16" value="" style="edgeStyle=orthogonalEdgeStyle;rounded=0;orthogonalLoop=1;jettySize=auto;html=1;" edge="1" parent="WIyWlLk6GJQsqaUBKTNV-1" source="dHORNTZS-OYa20uzowHz-13" target="dHORNTZS-OYa20uzowHz-15">
          <mxGeometry relative="1" as="geometry" />
        </mxCell>
        <mxCell id="dHORNTZS-OYa20uzowHz-13" value="Rinse off Shampoo" style="whiteSpace=wrap;html=1;rounded=1;arcSize=14;strokeWidth=2;" vertex="1" parent="WIyWlLk6GJQsqaUBKTNV-1">
          <mxGeometry x="320" y="370" width="120" height="60" as="geometry" />
        </mxCell>
        <mxCell id="dHORNTZS-OYa20uzowHz-18" value="YES" style="edgeStyle=orthogonalEdgeStyle;rounded=0;orthogonalLoop=1;jettySize=auto;html=1;" edge="1" parent="WIyWlLk6GJQsqaUBKTNV-1" source="dHORNTZS-OYa20uzowHz-15" target="dHORNTZS-OYa20uzowHz-17">
          <mxGeometry x="-0.0667" relative="1" as="geometry">
            <mxPoint as="offset" />
          </mxGeometry>
        </mxCell>
        <mxCell id="dHORNTZS-OYa20uzowHz-23" value="" style="edgeStyle=orthogonalEdgeStyle;rounded=0;orthogonalLoop=1;jettySize=auto;html=1;" edge="1" parent="WIyWlLk6GJQsqaUBKTNV-1" source="dHORNTZS-OYa20uzowHz-15" target="dHORNTZS-OYa20uzowHz-22">
          <mxGeometry relative="1" as="geometry" />
        </mxCell>
        <mxCell id="dHORNTZS-OYa20uzowHz-24" value="NO" style="edgeLabel;html=1;align=center;verticalAlign=middle;resizable=0;points=[];" vertex="1" connectable="0" parent="dHORNTZS-OYa20uzowHz-23">
          <mxGeometry x="-0.2952" y="-2" relative="1" as="geometry">
            <mxPoint as="offset" />
          </mxGeometry>
        </mxCell>
        <mxCell id="dHORNTZS-OYa20uzowHz-15" value="Apply Conditioner" style="rhombus;whiteSpace=wrap;html=1;rounded=1;arcSize=14;strokeWidth=2;" vertex="1" parent="WIyWlLk6GJQsqaUBKTNV-1">
          <mxGeometry x="325" y="480" width="110" height="110" as="geometry" />
        </mxCell>
        <mxCell id="dHORNTZS-OYa20uzowHz-26" style="edgeStyle=orthogonalEdgeStyle;rounded=0;orthogonalLoop=1;jettySize=auto;html=1;exitX=0.5;exitY=1;exitDx=0;exitDy=0;entryX=1;entryY=0.5;entryDx=0;entryDy=0;" edge="1" parent="WIyWlLk6GJQsqaUBKTNV-1" source="dHORNTZS-OYa20uzowHz-17" target="dHORNTZS-OYa20uzowHz-22">
          <mxGeometry relative="1" as="geometry" />
        </mxCell>
        <mxCell id="dHORNTZS-OYa20uzowHz-17" value="Rinse off Conditioner" style="whiteSpace=wrap;html=1;rounded=1;arcSize=14;strokeWidth=2;" vertex="1" parent="WIyWlLk6GJQsqaUBKTNV-1">
          <mxGeometry x="510" y="505" width="120" height="60" as="geometry" />
        </mxCell>
        <mxCell id="dHORNTZS-OYa20uzowHz-30" value="" style="edgeStyle=orthogonalEdgeStyle;rounded=0;orthogonalLoop=1;jettySize=auto;html=1;" edge="1" parent="WIyWlLk6GJQsqaUBKTNV-1" source="dHORNTZS-OYa20uzowHz-22" target="dHORNTZS-OYa20uzowHz-29">
          <mxGeometry relative="1" as="geometry" />
        </mxCell>
        <mxCell id="dHORNTZS-OYa20uzowHz-22" value="Apply Soap" style="rounded=1;whiteSpace=wrap;html=1;arcSize=14;strokeWidth=2;" vertex="1" parent="WIyWlLk6GJQsqaUBKTNV-1">
          <mxGeometry x="320" y="640" width="120" height="60" as="geometry" />
        </mxCell>
        <mxCell id="dHORNTZS-OYa20uzowHz-32" value="" style="edgeStyle=orthogonalEdgeStyle;rounded=0;orthogonalLoop=1;jettySize=auto;html=1;" edge="1" parent="WIyWlLk6GJQsqaUBKTNV-1" source="dHORNTZS-OYa20uzowHz-29" target="dHORNTZS-OYa20uzowHz-31">
          <mxGeometry relative="1" as="geometry" />
        </mxCell>
        <mxCell id="dHORNTZS-OYa20uzowHz-29" value="Rinse Body" style="rounded=1;whiteSpace=wrap;html=1;arcSize=14;strokeWidth=2;" vertex="1" parent="WIyWlLk6GJQsqaUBKTNV-1">
          <mxGeometry x="320" y="740" width="120" height="60" as="geometry" />
        </mxCell>
        <mxCell id="dHORNTZS-OYa20uzowHz-37" style="edgeStyle=orthogonalEdgeStyle;rounded=0;orthogonalLoop=1;jettySize=auto;html=1;exitX=0;exitY=0.5;exitDx=0;exitDy=0;entryX=0;entryY=0.5;entryDx=0;entryDy=0;" edge="1" parent="WIyWlLk6GJQsqaUBKTNV-1" source="dHORNTZS-OYa20uzowHz-31" target="dHORNTZS-OYa20uzowHz-22">
          <mxGeometry relative="1" as="geometry" />
        </mxCell>
        <mxCell id="dHORNTZS-OYa20uzowHz-38" value="NO" style="edgeLabel;html=1;align=center;verticalAlign=middle;resizable=0;points=[];" vertex="1" connectable="0" parent="dHORNTZS-OYa20uzowHz-37">
          <mxGeometry x="-0.0143" y="1" relative="1" as="geometry">
            <mxPoint as="offset" />
          </mxGeometry>
        </mxCell>
        <mxCell id="dHORNTZS-OYa20uzowHz-40" value="" style="edgeStyle=orthogonalEdgeStyle;rounded=0;orthogonalLoop=1;jettySize=auto;html=1;" edge="1" parent="WIyWlLk6GJQsqaUBKTNV-1" source="dHORNTZS-OYa20uzowHz-31" target="dHORNTZS-OYa20uzowHz-39">
          <mxGeometry relative="1" as="geometry" />
        </mxCell>
        <mxCell id="dHORNTZS-OYa20uzowHz-41" value="YES" style="edgeLabel;html=1;align=center;verticalAlign=middle;resizable=0;points=[];" vertex="1" connectable="0" parent="dHORNTZS-OYa20uzowHz-40">
          <mxGeometry x="-0.05" y="3" relative="1" as="geometry">
            <mxPoint as="offset" />
          </mxGeometry>
        </mxCell>
        <mxCell id="dHORNTZS-OYa20uzowHz-31" value="Body Clean" style="rhombus;whiteSpace=wrap;html=1;rounded=1;arcSize=14;strokeWidth=2;" vertex="1" parent="WIyWlLk6GJQsqaUBKTNV-1">
          <mxGeometry x="330" y="850" width="100" height="100" as="geometry" />
        </mxCell>
        <mxCell id="dHORNTZS-OYa20uzowHz-43" value="" style="edgeStyle=orthogonalEdgeStyle;rounded=0;orthogonalLoop=1;jettySize=auto;html=1;" edge="1" parent="WIyWlLk6GJQsqaUBKTNV-1" source="dHORNTZS-OYa20uzowHz-39" target="dHORNTZS-OYa20uzowHz-42">
          <mxGeometry relative="1" as="geometry" />
        </mxCell>
        <mxCell id="dHORNTZS-OYa20uzowHz-39" value="Turn off Shower" style="rounded=1;whiteSpace=wrap;html=1;arcSize=14;strokeWidth=2;" vertex="1" parent="WIyWlLk6GJQsqaUBKTNV-1">
          <mxGeometry x="320" y="990" width="120" height="60" as="geometry" />
        </mxCell>
        <mxCell id="dHORNTZS-OYa20uzowHz-45" value="" style="edgeStyle=orthogonalEdgeStyle;rounded=0;orthogonalLoop=1;jettySize=auto;html=1;" edge="1" parent="WIyWlLk6GJQsqaUBKTNV-1" source="dHORNTZS-OYa20uzowHz-42" target="dHORNTZS-OYa20uzowHz-44">
          <mxGeometry relative="1" as="geometry" />
        </mxCell>
        <mxCell id="dHORNTZS-OYa20uzowHz-42" value="Towel Dry Hair and Body" style="rounded=1;whiteSpace=wrap;html=1;arcSize=14;strokeWidth=2;" vertex="1" parent="WIyWlLk6GJQsqaUBKTNV-1">
          <mxGeometry x="320" y="1100" width="120" height="60" as="geometry" />
        </mxCell>
        <mxCell id="dHORNTZS-OYa20uzowHz-44" value="END" style="ellipse;whiteSpace=wrap;html=1;rounded=1;arcSize=14;strokeWidth=2;" vertex="1" parent="WIyWlLk6GJQsqaUBKTNV-1">
          <mxGeometry x="340" y="1230" width="80" height="40" as="geometry" />
        </mxCell>
      </root>
    </mxGraphModel>
  </diagram>
</mxfile>
